<svg xmlns="http://www.w3.org/2000/svg" xmlns:xlink="http://www.w3.org/1999/xlink" width="1140" height="711.3"><rect width="1140" height="711.3" rx="5" ry="5" class="a"/><svg y="0%" x="0%"><circle cx="20" cy="20" r="6" fill="#ff5f58"/><circle cx="40" cy="20" r="6" fill="#ffbd2e"/><circle cx="60" cy="20" r="6" fill="#18c132"/></svg><svg height="651.3" viewBox="0 0 110 65.13" width="1100" x="15" xmlns="http://www.w3.org/2000/svg" xmlns:xlink="http://www.w3.org/1999/xlink" y="50"><style>@keyframes n{0%{transform:translateX(-1100px)}.1%{transform:translateX(-110px)}.2%{transform:translateX(-550px)}27.9%{transform:translateX(-660px)}43.9%{transform:translateX(-770px)}47%{transform:translateX(-880px)}47.4%{transform:translateX(-990px)}62.8%{transform:translateX(-1320px)}79.8%{transform:translateX(-1430px)}82.8%{transform:translateX(-1540px)}83%{transform:translateX(-1760px)}to{transform:translateX(-1870px)}}.a{fill:#282d35}.f{white-space:pre}.f,.j{fill:#b9c0cb}.k{fill:#282d35;white-space:pre}</style><g font-family="Monaco,Consolas,Menlo,'Bitstream Vera Sans Mono','Powerline Symbols',monospace" font-size="1.67"><defs><symbol id="1"><text y="1.67" class="f">(base)</text><text x="7.014" y="1.67" class="f">[jpc@jpc</text><text x="16.032" y="1.67" class="f">~]</text><text x="19.038" y="1.67" class="f">microk8s</text><text x="28.056" y="1.67" class="f">kubectl</text><text x="36.072" y="1.67" class="f">exec</text><text x="41.082" y="1.67" class="f">-it</text><text x="45.09" y="1.67" class="f">k8s-socketcan-client-example</text><text x="74.148" y="1.67" class="f">--</text><text x="77.154" y="1.67" class="f">candump</text><text x="85.17" y="1.67" class="f">vcan0</text></symbol><symbol id="2"><text y="1.67" class="f">────────────────────────────────────────────────────────</text><text x="56.112" y="1.67" style="white-space:pre" fill="#a8cc8c">──────────────────────────────────────────────────────</text></symbol><symbol id="3"><text y="1.67" class="f">(base)</text><text x="7.014" y="1.67" class="f">[jpc@jpc</text><text x="16.032" y="1.67" class="f">~]</text></symbol><symbol id="4"><path fill="#a8cc8c" d="M0 0h110v2.171H0z"/><text y="1.67" style="white-space:pre">[terminal-0:zsh* &quot;jpc.local&quot; 14:17 18-Feb-22</text></symbol><symbol id="5"><text y="1.67" class="f">(base)</text><text x="7.014" y="1.67" class="f">[jpc@jpc</text><text x="16.032" y="1.67" class="f">~]</text><path class="j" d="M19.038 0h91v2.171h-91z"/><text x="19.038" y="1.67" class="k">microk8s kubectl exec -it k8s-socketcan-client-example -- cansend vcan0 5A1#11.2233.4455667</text></symbol><symbol id="6"><path class="j" d="M0 0h4v2.171H0z"/><text y="1.67" class="k">7.88</text></symbol><symbol id="7"><text y="1.67" class="f">(base)</text><text x="7.014" y="1.67" class="f">[jpc@jpc</text><text x="16.032" y="1.67" class="f">~]</text><text x="19.038" y="1.67" class="f">microk8s</text><text x="28.056" y="1.67" class="f">kubectl</text><text x="36.072" y="1.67" class="f">exec</text><text x="41.082" y="1.67" class="f">-it</text><text x="45.09" y="1.67" class="f">k8s-socketcan-client-example</text><text x="74.148" y="1.67" class="f">--</text><text x="77.154" y="1.67" class="f">cansend</text><text x="85.17" y="1.67" class="f">vcan0</text><text x="91.182" y="1.67" class="f">5A1#11.2233.4455667</text></symbol><symbol id="8"><text y="1.67" class="f">7.88</text></symbol><symbol id="9"><text x="2.004" y="1.67" class="f">vcan0</text><text x="9.018" y="1.67" class="f">5A1</text><text x="15.03" y="1.67" class="f">[8]</text><text x="20.04" y="1.67" class="f">11</text><text x="23.046" y="1.67" class="f">22</text><text x="26.052" y="1.67" class="f">33</text><text x="29.058" y="1.67" class="f">44</text><text x="32.064" y="1.67" class="f">55</text><text x="35.07" y="1.67" class="f">66</text><text x="38.076" y="1.67" class="f">77</text><text x="41.082" y="1.67" class="f">88</text></symbol><symbol id="a"><path fill="transparent" d="M0 0h110v30H0z"/></symbol><symbol id="b"><path fill="#6f7683" d="M0 0h1.102v2.171H0z"/></symbol></defs><path class="a" d="M0 0h110v65.13H0z"/><g style="animation-duration:5.891945s;animation-iteration-count:infinite;animation-name:n;animation-timing-function:steps(1,end)"><svg width="1980"><svg><use xlink:href="#a"/><use xlink:href="#b" x="-.004"/></svg><svg x="110"><use xlink:href="#a"/><use xlink:href="#b" x="18.996" y="32.54"/></svg><svg x="220"><use xlink:href="#a"/><use xlink:href="#b" x="18.996" y="32.54"/><use xlink:href="#1"/><use xlink:href="#2" y="30.394"/><use xlink:href="#3" y="32.565"/><use xlink:href="#4" y="62.959"/></svg><svg x="330"><use xlink:href="#a"/><use xlink:href="#b" x="18.996" y="32.54"/><use xlink:href="#1"/><use xlink:href="#2" y="30.394"/><use xlink:href="#3" y="32.565"/><use xlink:href="#4" y="62.959"/></svg><svg x="440"><use xlink:href="#a"/><use xlink:href="#b" x="18.996" y="32.54"/><use xlink:href="#1"/><use xlink:href="#2" y="30.394"/><use xlink:href="#3" y="32.565"/><use xlink:href="#4" y="62.959"/></svg><svg x="550"><use xlink:href="#a"/><use xlink:href="#b" x="18.996" y="32.54"/><use xlink:href="#1"/><use xlink:href="#2" y="30.394"/><use xlink:href="#3" y="32.565"/><use xlink:href="#4" y="62.959"/></svg><svg x="660"><use xlink:href="#a"/><use xlink:href="#b" x="3.996" y="34.711"/><use xlink:href="#1"/><use xlink:href="#2" y="30.394"/><use xlink:href="#5" y="32.565"/><use xlink:href="#6" y="34.736"/><use xlink:href="#4" y="62.959"/></svg><svg x="770"><use xlink:href="#a"/><use xlink:href="#b" x="-.004" y="36.882"/><use xlink:href="#1"/><use xlink:href="#2" y="30.394"/><use xlink:href="#7" y="32.565"/><use xlink:href="#8" y="34.736"/><use xlink:href="#4" y="62.959"/></svg><svg x="880"><use xlink:href="#a"/><use xlink:href="#b" x="-.004" y="36.882"/><use xlink:href="#1"/><use xlink:href="#9" y="4.342"/><use xlink:href="#2" y="30.394"/><use xlink:href="#7" y="32.565"/><use xlink:href="#8" y="34.736"/><use xlink:href="#4" y="62.959"/></svg><svg x="990"><use xlink:href="#a"/><use xlink:href="#b" x="-.004" y="36.882"/><use xlink:href="#1"/><use xlink:href="#9" y="4.342"/><use xlink:href="#2" y="30.394"/><use xlink:href="#7" y="32.565"/><use xlink:href="#8" y="34.736"/><use xlink:href="#4" y="62.959"/></svg><svg x="1100"><use xlink:href="#a"/><use xlink:href="#b" x="18.996" y="36.882"/><use xlink:href="#1"/><use xlink:href="#9" y="4.342"/><use xlink:href="#2" y="30.394"/><use xlink:href="#7" y="32.565"/><use xlink:href="#8" y="34.736"/><use xlink:href="#3" y="36.907"/><use xlink:href="#4" y="62.959"/></svg><svg x="1210"><use xlink:href="#a"/><use xlink:href="#b" x="3.996" y="39.053"/><use xlink:href="#1"/><use xlink:href="#9" y="4.342"/><use xlink:href="#2" y="30.394"/><use xlink:href="#7" y="32.565"/><use xlink:href="#8" y="34.736"/><use xlink:href="#5" y="36.907"/><use xlink:href="#6" y="39.078"/><use xlink:href="#4" y="62.959"/></svg><svg x="1320"><use xlink:href="#a"/><use xlink:href="#b" x="3.996" y="39.053"/><use xlink:href="#1"/><use xlink:href="#9" y="4.342"/><use xlink:href="#2" y="30.394"/><use xlink:href="#7" y="32.565"/><use xlink:href="#8" y="34.736"/><use xlink:href="#7" y="36.907"/><use xlink:href="#8" y="39.078"/><use xlink:href="#4" y="62.959"/></svg><svg x="1430"><use xlink:href="#a"/><use xlink:href="#b" x="-.004" y="41.224"/><use xlink:href="#1"/><use xlink:href="#9" y="4.342"/><use xlink:href="#2" y="30.394"/><use xlink:href="#7" y="32.565"/><use xlink:href="#8" y="34.736"/><use xlink:href="#7" y="36.907"/><use xlink:href="#8" y="39.078"/><use xlink:href="#4" y="62.959"/></svg><svg x="1540"><use xlink:href="#a"/><use xlink:href="#b" x="-.004" y="41.224"/><use xlink:href="#1"/><use xlink:href="#9" y="4.342"/><use xlink:href="#9" y="6.513"/><use xlink:href="#2" y="30.394"/><use xlink:href="#7" y="32.565"/><use xlink:href="#8" y="34.736"/><use xlink:href="#7" y="36.907"/><use xlink:href="#8" y="39.078"/><use xlink:href="#4" y="62.959"/></svg><svg x="1650"><use xlink:href="#a"/><use xlink:href="#b" x="-.004" y="41.224"/><use xlink:href="#1"/><use xlink:href="#9" y="4.342"/><use xlink:href="#9" y="6.513"/><use xlink:href="#2" y="30.394"/><use xlink:href="#7" y="32.565"/><use xlink:href="#8" y="34.736"/><use xlink:href="#7" y="36.907"/><use xlink:href="#8" y="39.078"/><use xlink:href="#4" y="62.959"/></svg><svg x="1760"><use xlink:href="#a"/><use xlink:href="#b" x="18.996" y="41.224"/><use xlink:href="#1"/><use xlink:href="#9" y="4.342"/><use xlink:href="#9" y="6.513"/><use xlink:href="#2" y="30.394"/><use xlink:href="#7" y="32.565"/><use xlink:href="#8" y="34.736"/><use xlink:href="#7" y="36.907"/><use xlink:href="#8" y="39.078"/><use xlink:href="#3" y="41.249"/><use xlink:href="#4" y="62.959"/></svg><svg x="1870"><use xlink:href="#a"/><use xlink:href="#b" x="18.996" y="41.224"/><use xlink:href="#1"/><use xlink:href="#9" y="4.342"/><use xlink:href="#9" y="6.513"/><use xlink:href="#2" y="30.394"/><use xlink:href="#7" y="32.565"/><use xlink:href="#8" y="34.736"/><use xlink:href="#7" y="36.907"/><use xlink:href="#8" y="39.078"/><use xlink:href="#3" y="41.249"/><use xlink:href="#4" y="62.959"/></svg></svg></g></g></svg></svg>